<svg width="32" height="32" viewBox="0 0 32 32" fill="none" xmlns="http://www.w3.org/2000/svg">
  <!-- Background circle -->
  <circle cx="16" cy="16" r="16" fill="#22c55e"/>
  
  <!-- Piggy bank body -->
  <ellipse cx="16" cy="20" rx="8" ry="6" fill="#ffffff"/>
  
  <!-- Piggy bank head -->
  <circle cx="16" cy="14" r="6" fill="#ffffff"/>
  
  <!-- Snout -->
  <ellipse cx="16" cy="16" rx="2" ry="1.5" fill="#f3f4f6"/>
  
  <!-- Nostrils -->
  <circle cx="15" cy="15.5" r="0.3" fill="#6b7280"/>
  <circle cx="17" cy="15.5" r="0.3" fill="#6b7280"/>
  
  <!-- Eyes -->
  <circle cx="14" cy="12" r="0.8" fill="#1f2937"/>
  <circle cx="18" cy="12" r="0.8" fill="#1f2937"/>
  
  <!-- Ears -->
  <ellipse cx="12" cy="10" rx="1" ry="2" fill="#ffffff" transform="rotate(-30 12 10)"/>
  <ellipse cx="20" cy="10" rx="1" ry="2" fill="#ffffff" transform="rotate(30 20 10)"/>
  
  <!-- Coin slot -->
  <rect x="15" y="8" width="2" height="0.5" fill="#fbbf24" rx="0.25"/>
  
  <!-- Legs -->
  <rect x="13" y="24" width="1.5" height="3" fill="#ffffff" rx="0.75"/>
  <rect x="17.5" y="24" width="1.5" height="3" fill="#ffffff" rx="0.75"/>
  
  <!-- Tail -->
  <path d="M8 18 Q6 16 8 14" stroke="#ffffff" stroke-width="1.5" fill="none" stroke-linecap="round"/>
</svg>
